<svg width="1000" height="277" viewBox="0 0 1000 277" fill="none" xmlns="http://www.w3.org/2000/svg">
<path d="M910.929 276.44C889.873 276.44 871.42 272.3 855.57 264.02C839.955 255.503 827.772 243.911 819.018 229.243C810.502 214.575 806.243 197.897 806.243 179.207C806.243 160.281 810.383 143.602 818.664 129.171C827.18 114.503 838.773 103.029 853.44 94.7489C868.345 86.4687 885.26 82.3286 904.186 82.3286C922.639 82.3286 939.081 86.3504 953.512 94.394C967.944 102.438 979.299 113.793 987.579 128.461C995.86 143.129 1000 160.399 1000 180.272C1000 182.164 999.882 184.293 999.645 186.659C999.645 189.025 999.527 191.272 999.29 193.402H841.375V163.948H975.869L958.481 173.174C958.717 162.292 956.47 152.71 951.738 144.43C947.007 136.15 940.501 129.644 932.221 124.912C924.177 120.181 914.832 117.815 904.186 117.815C893.304 117.815 883.722 120.181 875.442 124.912C867.398 129.644 861.011 136.268 856.279 144.785C851.784 153.065 849.537 162.883 849.537 174.239V181.336C849.537 192.692 852.139 202.746 857.344 211.5C862.549 220.253 869.882 226.995 879.345 231.727C888.809 236.459 899.691 238.824 911.993 238.824C922.639 238.824 932.22 237.168 940.737 233.856C949.254 230.544 956.825 225.339 963.449 218.242L987.225 245.567C978.708 255.503 967.944 263.192 954.932 268.633C942.157 273.838 927.489 276.44 910.929 276.44Z" fill="black"/>
<path d="M678.005 273.956L596.741 84.4578H642.874L712.782 251.599H690.071L762.463 84.4578H805.047L723.783 273.956H678.005Z" fill="black"/>
<path d="M525.036 273.956V84.458H569.394V273.956H525.036ZM547.393 53.2298C539.112 53.2298 532.252 50.6275 526.81 45.4228C521.606 40.2181 519.003 33.9488 519.003 26.6149C519.003 19.0444 521.606 12.7752 526.81 7.80703C532.252 2.60234 539.112 0 547.393 0C555.673 0 562.415 2.48406 567.62 7.45217C573.061 12.1837 575.782 18.2164 575.782 25.5503C575.782 33.3574 573.18 39.9815 567.975 45.4228C562.77 50.6275 555.909 53.2298 547.393 53.2298Z" fill="black"/>
<path d="M445.962 276.44C425.143 276.44 409.056 271.117 397.7 260.471C386.345 249.589 380.667 233.62 380.667 212.565V42.584H425.025V211.5C425.025 220.49 427.272 227.469 431.767 232.437C436.499 237.405 443.005 239.889 451.285 239.889C461.221 239.889 469.501 237.287 476.126 232.082L488.546 263.665C483.341 267.924 476.954 271.117 469.383 273.247C461.813 275.376 454.006 276.44 445.962 276.44ZM349.438 121.364V85.8776H475.771V121.364H349.438Z" fill="black"/>
<path fill-rule="evenodd" clip-rule="evenodd" d="M362.958 228.036C361.468 229.125 359.9 230.119 358.252 231.017C350.682 235.276 341.692 237.405 331.282 237.405C317.088 237.405 306.087 233.265 298.28 224.985C290.709 216.468 286.924 203.693 286.924 186.659V84.4578H242.566V192.692C242.566 211.618 245.996 227.35 252.857 239.889C259.718 252.191 269.299 261.417 281.601 267.568C293.903 273.483 308.098 276.44 324.185 276.44C338.187 276.44 351.112 273.529 362.958 267.708V228.036Z" fill="black"/>
<path fill-rule="evenodd" clip-rule="evenodd" d="M0 84.4576L82.8381 273.956H128.261L236.495 25.5505H190.362L106.87 217.038L49.6907 84.4576H0Z" fill="#3B82F6"/>
</svg>
